# xmcd
#
# Track frame offsets:
#	150
#	14600
#	31026
#	50311
#	74386
#	86363
#	113164
#	133356
#
# Disc length: 1975 seconds
#
# Revision: 8
# Processed by: cddbd v1.5.2PL0 Copyright (c) Steve Scherf et al.
# Submitted via: Jack! The Knife 20 Magnifico
#
DISCID=6507b508
DTITLE=Motorhead - Motorhead
DYEAR=1977
DGENRE=Heavy Metal
TTITLE0=Motorhead
TTITLE1=Vibrator
TTITLE2=Lost Johnny
TTITLE3=Iron Horse - Born To Lose
TTITLE4=White Line Fever
TTITLE5=Keep Us On The Road
TTITLE6=The Watcher
TTITLE7=The Train Kept A-Rollin'
EXTD=Speedy Keen
EXTT0=Ian Kilmister
EXTT1=Wallis, Brown
EXTT2=Kilmister, Mick Farren
EXTT3=Taylor, Brown, Lawrence
EXTT4=Clarke, Kilmister, Taylor
EXTT5=Clarke, Kilmister, Taylor, Farren
EXTT6=Ian Kilmister
EXTT7=Bradshaw, Kay, Mann
PLAYORDER=
